HIERARCHY
ROOT hip
{
  OFFSET 0 0 0
  CHANNELS 6 Xposition Yposition Zposition Zrotation Yrotation Xrotation
  JOINT abdomen
  {
    OFFSET 0 20.6881 -0.73152
    CHANNELS 3 Zrotation Xrotation Yrotation
    JOINT chest
    {
      OFFSET 0 11.7043 -0.48768
      CHANNELS 3 Zrotation Xrotation Yrotation
      JOINT neck
      {
        OFFSET 0 22.1894 -2.19456
        CHANNELS 3 Zrotation Xrotation Yrotation
        JOINT head
        {
          OFFSET -0.24384 7.07133 1.2192
          CHANNELS 3 Zrotation Xrotation Yrotation
          JOINT leftEye
          {
            OFFSET 4.14528 8.04674 8.04672
            CHANNELS 3 Zrotation Xrotation Yrotation
            End Site
            {
              OFFSET 1 0 0
            }
          }
          JOINT rightEye
          {
            OFFSET -3.6576 8.04674 8.04672
            CHANNELS 3 Zrotation Xrotation Yrotation
            End Site
            {
              OFFSET 1 0 0
            }
          }
        }
      }
      JOINT rCollar
      {
        OFFSET -2.68224 19.2634 -4.8768
        CHANNELS 3 Zrotation Xrotation Yrotation
        JOINT rShldr
        {
          OFFSET -8.77824 -1.95073 1.46304
          CHANNELS 3 Zrotation Xrotation Yrotation
          JOINT rForeArm
          {
            OFFSET -28.1742 -1.7115 0.48768
            CHANNELS 3 Zrotation Xrotation Yrotation
            JOINT rHand
            {
              OFFSET -22.5879 0.773209 7.07136
              CHANNELS 3 Zrotation Xrotation Yrotation
              JOINT rThumb1
              {
                OFFSET -1.2192 -0.487915 3.41376
                CHANNELS 3 Zrotation Xrotation Yrotation
                JOINT rThumb2
                {
                  OFFSET -3.37035 -0.52449 3.41376
                  CHANNELS 3 Zrotation Xrotation Yrotation
                  End Site
                  {
                    OFFSET -1.78271 -1.18214 1.43049
                  }
                }
              }
              JOINT rIndex1
              {
                OFFSET -7.75947 0.938293 5.60832
                CHANNELS 3 Zrotation Xrotation Yrotation
                JOINT rIndex2
                {
                  OFFSET -2.54057 -0.884171 1.56538
                  CHANNELS 3 Zrotation Xrotation Yrotation
                  End Site
                  {
                    OFFSET -1.62519 -0.234802 1.16502
                  }
                }
              }
              JOINT rMid1
              {
                OFFSET -8.24714 1.18213 3.41376
                CHANNELS 3 Zrotation Xrotation Yrotation
                JOINT rMid2
                {
                  OFFSET -3.10165 -0.590103 1.0647
                  CHANNELS 3 Zrotation Xrotation Yrotation
                  End Site
                  {
                    OFFSET -2.48547 -0.328903 0.83742
                  }
                }
              }
              JOINT rRing1
              {
                OFFSET -8.82822 0.546677 1.51678
                CHANNELS 3 Zrotation Xrotation Yrotation
                JOINT rRing2
                {
                  OFFSET -2.60934 -0.819778 -0.0198488
                  CHANNELS 3 Zrotation Xrotation Yrotation
                  End Site
                  {
                    OFFSET -2.33842 -0.294052 0.168128
                  }
                }
              }
              JOINT rPinky1
              {
                OFFSET -8.27202 -0.0477905 -0.4584
                CHANNELS 3 Zrotation Xrotation Yrotation
                JOINT rPinky2
                {
                  OFFSET -1.82734 -0.647385 -0.700984
                  CHANNELS 3 Zrotation Xrotation Yrotation
                  End Site
                  {
                    OFFSET -1.69225 -0.51767 -0.607171
                  }
                }
              }
            }
          }
        }
      }
      JOINT lCollar
      {
        OFFSET 2.68224 19.2634 -4.8768
        CHANNELS 3 Zrotation Xrotation Yrotation
        JOINT lShldr
        {
          OFFSET 8.77824 -1.95073 1.46304
          CHANNELS 3 Zrotation Xrotation Yrotation
          JOINT lForeArm
          {
            OFFSET 28.1742 -1.7115 0.48768
            CHANNELS 3 Zrotation Xrotation Yrotation
            JOINT lHand
            {
              OFFSET 22.5879 0.773209 7.07136
              CHANNELS 3 Zrotation Xrotation Yrotation
              JOINT lThumb1
              {
                OFFSET 1.2192 -0.487915 3.41376
                CHANNELS 3 Zrotation Xrotation Yrotation
                JOINT lThumb2
                {
                  OFFSET 3.37035 -0.52449 3.41376
                  CHANNELS 3 Zrotation Xrotation Yrotation
                  End Site
                  {
                    OFFSET 1.78271 -1.18214 1.43049
                  }
                }
              }
              JOINT lIndex1
              {
                OFFSET 7.75947 0.938293 5.60832
                CHANNELS 3 Zrotation Xrotation Yrotation
                JOINT lIndex2
                {
                  OFFSET 2.54057 -0.884171 1.56538
                  CHANNELS 3 Zrotation Xrotation Yrotation
                  End Site
                  {
                    OFFSET 1.62519 -0.234802 1.16502
                  }
                }
              }
              JOINT lMid1
              {
                OFFSET 8.24714 1.18213 3.41376
                CHANNELS 3 Zrotation Xrotation Yrotation
                JOINT lMid2
                {
                  OFFSET 3.10165 -0.590103 1.0647
                  CHANNELS 3 Zrotation Xrotation Yrotation
                  End Site
                  {
                    OFFSET 2.48547 -0.328903 0.83742
                  }
                }
              }
              JOINT lRing1
              {
                OFFSET 8.82822 0.546677 1.51678
                CHANNELS 3 Zrotation Xrotation Yrotation
                JOINT lRing2
                {
                  OFFSET 2.60934 -0.819778 -0.0198488
                  CHANNELS 3 Zrotation Xrotation Yrotation
                  End Site
                  {
                    OFFSET 2.33842 -0.294052 0.168128
                  }
                }
              }
              JOINT lPinky1
              {
                OFFSET 8.27202 -0.0477905 -0.4584
                CHANNELS 3 Zrotation Xrotation Yrotation
                JOINT lPinky2
                {
                  OFFSET 1.82734 -0.647385 -0.700984
                  CHANNELS 3 Zrotation Xrotation Yrotation
                  End Site
                  {
                    OFFSET 1.69225 -0.51767 -0.607171
                  }
                }
              }
            }
          }
        }
      }
    }
  }
  JOINT rButtock
  {
    OFFSET -8.77824 4.35084 1.2192
    CHANNELS 3 Zrotation Xrotation Yrotation
    JOINT rThigh
    {
      OFFSET 0 -1.70687 -2.19456
      CHANNELS 3 Zrotation Xrotation Yrotation
      JOINT rShin
      {
        OFFSET 0 -36.8199 0.73152
        CHANNELS 3 Zrotation Xrotation Yrotation
        JOINT rFoot
        {
          OFFSET 0.73152 -45.1104 -5.12064
          CHANNELS 3 Zrotation Xrotation Yrotation
          End Site
          {
            OFFSET -1.1221 -3.69964 12.103
          }
        }
      }
    }
  }
  JOINT lButtock
  {
    OFFSET 8.77824 4.35084 1.2192
    CHANNELS 3 Zrotation Xrotation Yrotation
    JOINT lThigh
    {
      OFFSET 0 -1.70687 -2.19456
      CHANNELS 3 Zrotation Xrotation Yrotation
      JOINT lShin
      {
        OFFSET 0 -36.8199 0.73152
        CHANNELS 3 Zrotation Xrotation Yrotation
        JOINT lFoot
        {
          OFFSET -0.73152 -45.1104 -5.12064
          CHANNELS 3 Zrotation Xrotation Yrotation
          End Site
          {
            OFFSET 1.1221 -3.69964 12.103
          }
        }
      }
    }
  }
}
MOTION
Frames:	6
Frame Time:	0.03333
81.3905 59.439699999999995 -15.786700000000002 -33.984305 66.478186 -39.273348 13.569776 19.620118 -0.0 -0.073789 -8.388843 19.370426 -5.157336 14.924945 -15.492278 16.024424 -18.815902 22.351492 0.000757 -0.0 -0.000553 0.001382 -0.0 -0.000144 -136.634977 48.599315 140.720223 -82.031052 25.9372 72.771012 -158.459664 5.026714 -134.824438 -2.137777 17.891209 1.548316 6.462946 -6.452973 -0.635461 -150.534065 -64.661545 125.558499 9.086391 -15.965802 -4.198566 -176.105538 -34.865587 106.721601 8.395641 -26.368166 -3.093532 2.741379 1.168274 0.156928 -145.098497 -1.604454 -178.622524 -34.888476 -74.877147 -56.347972 -150.033999 28.965524 -145.936638 -138.069733 -12.387438 -134.066846 130.361059 54.596791 -134.227616 -73.875784 -36.636104 -107.052553 54.815783 30.192728 -24.833488 -24.760748 -44.790815 -16.286791 -81.9718 -50.091194 -32.722956 32.996688 8.077313 6.617688 129.576032 16.760748 -108.785546 3.501877 19.833632 3.727414 82.839691 61.110704 -74.532742 163.823024 -7.0415 -143.392168 -0.006143 1.772326 -0.556735 -11.295167 -23.581549 2.838185 7.020953 -15.480851 6.608883 -15.205154 42.880453 -8.546437 -0.001586 0.000641 -0.000793 -11.821361 7.868378 1.405319 0.002336 56.741051 -138.392613 40.39039 -26.49361 120.330233 0.000488 -0.00204 -0.000627 64.006657 -45.031246 56.36252 -27.476092 79.124899 -74.737088 37.159819 -50.338216 130.267909
81.7507 59.321 -15.9323 -33.655411 66.59844 -38.814028 11.672867 18.631009 51.500469 -4.831819 -6.067742 -32.022726 -8.998506 30.229035 -115.777358 30.058327 27.901688 114.371582 0.003497 -0.0 -5.9e-05 0.003497 -0.0 -5.9e-05 -13.743372 42.431625 15.56897 -131.748509 -30.393155 141.875719 13.73469 -45.158613 -76.341318 162.011903 -28.186774 142.123846 -176.59689 -14.213689 89.691425 -176.781918 -13.105291 95.654305 -166.819328 -43.974159 122.062916 25.79106 -24.158812 -10.105382 -169.089365 -33.247131 145.376669 -163.378828 -4.766488 142.988087 -145.062487 -3.307976 -178.087896 -149.846682 78.835956 164.557684 -149.319681 26.307936 -145.361595 15.926687 41.666314 5.931593 -2.459849 -18.216399 3.668618 -73.707058 16.762053 5.380884 -2.17328 6.16442 -32.319967 7.352865 33.708566 -2.450364 143.808597 16.628346 -83.798897 -169.014986 -29.057915 -82.883716 18.648233 23.635606 -12.968607 154.022697 1.465261 -109.486891 160.394605 -5.805635 -143.111881 -11.54013 -24.896961 1.140281 145.065308 -3.223333 178.116045 -2.98862 -43.652535 17.829615 -7.222867 22.274003 -6.417055 148.267436 13.331064 143.993461 0.0 0.000395 -0.001877 -10.878686 6.906093 -88.175599 -45.968515 5.292422 117.005985 -92.967115 44.5549 0.995381 0.0 -0.000402 0.000519 64.014556 -46.344073 123.873637 87.320773 19.671912 68.271703 93.264144 41.071949 176.435093
82.1091 59.25 -16.0423 -33.118595 66.73364 -38.118816 13.415631 14.528869 180.0 0.082611 3.631207 -160.903369 9.618908 20.025379 76.099891 -28.247026 -1.299939 -73.610963 0.000879 -0.0 -0.000357 0.000247 -0.0 -0.000714 4.239334 -44.742781 -8.64745 34.097965 -10.350568 -37.602602 60.467126 22.348384 6.652161 -115.041857 76.885805 97.122673 -167.645709 -5.320449 89.842166 -134.739005 8.845708 66.379973 -148.885999 -12.610157 120.244047 -79.51085 57.403947 61.367041 -161.153545 -8.161024 143.46365 -176.813808 -42.231162 142.386888 7.4e-05 -0.018854 -0.003443 -115.568375 74.729016 129.243042 -134.875475 -13.760077 -132.287589 -126.911572 -28.820716 -124.929399 40.048104 -86.055499 61.579207 79.823911 -30.835761 100.095506 4.391052 -6.035777 64.773307 -151.811109 -44.263943 -134.462437 -1.842775 -1.826978 0.254483 67.309285 28.899659 -60.803425 6.226512 9.370097 -3.851133 -152.127252 -54.356451 -89.02393 36.036251 51.72304 -29.832412 179.608288 -48.730589 -141.325002 0.007535 -0.831573 0.259856 155.361089 -1.302083 -172.006635 -1.13354 3.040571 -1.045066 152.301283 29.147242 147.207591 179.998217 75.750428 0.001839 115.578712 76.417536 65.048563 17.278631 52.026517 106.572264 88.918703 44.20885 168.983238 -179.99754 75.749007 -0.002024 -140.20141 7.345547 -5.14476 14.522264 74.622915 8.224948 26.22513 -15.428092 -33.122829
82.4161 59.231199999999994 -16.123 -32.466941 66.689239 -37.431245 10.896117 16.350666 100.943727 -5.911421 -1.281767 -81.290831 -11.202466 24.880312 -81.266278 34.547055 10.522653 83.682476 0.000553 0.0 0.002653 0.000553 0.0 0.002653 -44.929159 -86.287069 -66.536991 111.097505 47.695574 -105.455833 -6.754588 8.830902 50.467544 -4.799902 26.662558 1.875766 -178.927967 -16.453548 89.421278 -32.712403 -29.721495 -0.251434 19.567957 -35.040476 -5.986232 88.245162 -61.269026 33.488819 -158.520412 -0.19253 142.144677 -42.477849 58.275919 36.604266 -0.000423 0.06401 0.018962 -78.280366 78.778092 91.693698 -82.430216 -51.044585 -80.838624 -22.61966 -39.780825 -24.698568 44.910833 -86.288524 66.518729 80.19913 -30.687996 99.704197 85.602779 -45.030748 104.236021 -24.856124 -44.773435 -16.417795 85.829304 38.630035 -47.955534 43.610954 -2.273492 -42.972907 -60.459853 -70.524455 -15.708515 -98.150227 -65.8696 -40.120686 39.288651 53.366247 -32.877709 -144.482789 -74.625305 -112.534977 -0.000285 0.0639 -0.019664 156.117675 -13.744799 -173.482988 46.802173 -48.624596 45.559484 79.968082 -53.901066 80.47034 179.742125 75.749843 0.198757 122.657276 75.389621 -121.807622 -16.99293 -55.161474 -61.905086 -69.929684 10.371238 -153.311707 0.000706 -0.000785 -0.000908 65.313509 -46.522187 -180.0 82.353549 -39.365213 -2.068597 -9.878094 17.637975 -91.608052
82.667 59.20530000000001 -16.2293 -32.518159 66.617555 -37.253022 10.979483 16.118306 99.644965 -5.886197 -1.435808 -80.054215 10.543554 23.375317 95.302195 -30.61744 9.031813 -90.597502 -0.00339 -0.0 0.004008 -0.004475 0.0 -0.001994 4.209262 -43.443132 -8.383323 80.509194 43.746645 -47.487494 -5.272303 1.093235 48.934213 -5.227662 27.975223 1.960545 1.599848 -1.586684 -0.224364 0.880772 -1.60902 -1.821866 -129.577955 16.761485 108.785593 171.703243 -49.826795 109.618707 -36.037098 51.722777 29.83262 -171.206951 -29.284422 144.099101 -145.120402 0.184527 -179.188427 11.10021 63.28387 -0.672251 19.285152 66.825046 13.090692 20.555367 60.820346 8.177061 44.921746 -86.28758 66.529977 80.289893 -30.660874 99.639413 -6.119192 3.026762 63.75009 -159.573187 -32.146137 -140.779646 168.72625 -6.405319 -89.900029 -36.875252 -64.646485 -30.257039 -10.209874 -18.051124 4.563825 112.299828 38.307171 -89.759064 0.057851 0.167815 -0.032384 13.370414 36.41179 -10.6324 73.164537 -72.142248 90.198226 150.425103 25.629058 -172.972408 137.843237 -7.593729 135.094668 25.332824 -40.333976 27.015235 179.972719 75.749965 0.018666 113.33581 76.508976 65.825847 7.98418 56.067154 168.870646 27.609661 22.625057 150.4564 -0.005627 0.000467 -0.00422 64.609588 -46.377891 149.428791 83.699851 3.464858 162.106627 175.167856 65.470382 -105.780078
82.8143 59.154799999999994 -16.2871 -32.211696 66.698146 -36.681413 13.470391 18.576409 -3.823159 0.422787 -8.23783 22.798383 5.137711 15.344148 42.055344 -16.987901 -16.376863 -41.469157 0.000736 0.0 0.001914 0.000736 0.0 0.001914 -155.614168 -4.236234 161.991514 138.347306 -9.312037 165.968934 165.652741 3.460437 97.798189 166.88879 -16.60075 145.155038 -2.607841 2.554751 0.458144 -0.793057 1.493914 2.362668 -19.171268 24.114159 13.381358 5.77815 4.117327 -0.315015 174.856457 -64.586015 138.855314 86.41182 -78.07204 57.854573 0.002102 0.063804 0.020246 -156.184189 -15.21872 173.650651 16.824766 58.945432 12.650419 -9.78324 -23.643538 -10.576232 -0.163084 -0.990091 0.218132 -73.635497 7.401015 -9.499213 -90.963647 -40.555468 -70.58882 168.821825 51.80347 -144.613316 68.482264 37.953539 -35.659936 -22.485301 -23.817491 -17.791505 -10.248167 -18.121538 4.576047 159.600179 -14.029024 -110.656898 165.206948 -21.113329 -144.879913 164.094278 -7.037535 -143.19271 -0.005684 1.771431 -0.556172 156.260831 -13.739816 -173.481974 162.887549 73.156947 150.767276 156.154616 36.83757 146.659921 -179.999113 75.749076 0.0 112.237929 76.482906 68.320229 12.371548 44.220073 47.889703 -30.217451 -33.978647 -97.219084 -0.003003 -0.001471 -0.001501 65.089897 -46.772042 -180.0 83.412615 -26.539957 160.657071 -4.842739 64.428072 91.211942
